<svg width="24" height="28" viewBox="0 0 24 28" fill="none" xmlns="http://www.w3.org/2000/svg">
<path d="M0.452433 20.6667C0.671126 21.0462 0.962487 21.379 1.30986 21.6458C1.65723 21.9127 2.05379 22.1085 2.47688 22.222C2.89997 22.3355 3.34128 22.3645 3.77559 22.3074C4.2099 22.2502 4.62868 22.108 5.00799 21.8889L5.50243 21.6033C6.43577 22.4019 7.50859 23.0212 8.66688 23.43V24C8.66688 24.8841 9.01807 25.7319 9.64319 26.357C10.2683 26.9822 11.1162 27.3333 12.0002 27.3333C12.8843 27.3333 13.7321 26.9822 14.3572 26.357C14.9824 25.7319 15.3335 24.8841 15.3335 24V23.43C16.492 23.0205 17.5648 22.4004 18.498 21.6011L18.9947 21.8878C19.7608 22.3298 20.6712 22.4494 21.5256 22.2202C22.3799 21.9909 23.1082 21.4317 23.5502 20.6656C23.9922 19.8994 24.1118 18.989 23.8826 18.1347C23.6534 17.2803 23.0942 16.552 22.328 16.11L21.8347 15.8256C22.0568 14.6172 22.0568 13.3784 21.8347 12.17L22.328 11.8856C22.7074 11.6667 23.0399 11.3752 23.3067 11.0279C23.5734 10.6805 23.7691 10.2839 23.8826 9.86091C23.9961 9.43789 24.0251 8.99666 23.9681 8.5624C23.9111 8.12815 23.7691 7.70938 23.5502 7.33001C23.3313 6.95063 23.0399 6.61808 22.6925 6.35134C22.3451 6.0846 21.9486 5.8889 21.5256 5.77541C21.1025 5.66191 20.6613 5.63285 20.2271 5.68988C19.7928 5.74691 19.374 5.88891 18.9947 6.10778L18.5002 6.39334C17.5659 5.59575 16.4924 4.9776 15.3335 4.57001V4.00001C15.3335 3.11595 14.9824 2.2681 14.3572 1.64298C13.7321 1.01786 12.8843 0.666672 12.0002 0.666672C11.1162 0.666672 10.2683 1.01786 9.64319 1.64298C9.01807 2.2681 8.66688 3.11595 8.66688 4.00001V4.57001C7.50842 4.97952 6.4356 5.59956 5.50243 6.39889L5.00577 6.11112C4.23959 5.66909 3.32919 5.54953 2.47486 5.77874C1.62053 6.00795 0.892238 6.56716 0.450211 7.33334C0.00818302 8.09952 -0.111376 9.00992 0.117835 9.86425C0.347046 10.7186 0.906252 11.4469 1.67243 11.8889L2.16577 12.1733C1.94367 13.3817 1.94367 14.6205 2.16577 15.8289L1.67243 16.1133C0.908205 16.5566 0.350747 17.2847 0.122094 18.1381C-0.106559 18.9914 0.0122213 19.9007 0.452433 20.6667ZM12.0002 9.55556C12.8792 9.55556 13.7385 9.81622 14.4694 10.3046C15.2003 10.7929 15.77 11.4871 16.1063 12.2992C16.4427 13.1113 16.5307 14.0049 16.3593 14.8671C16.1878 15.7292 15.7645 16.5211 15.1429 17.1427C14.5213 17.7643 13.7294 18.1876 12.8673 18.3591C12.0051 18.5305 11.1115 18.4425 10.2994 18.1061C9.48728 17.7697 8.79315 17.2001 8.30479 16.4692C7.81643 15.7383 7.55577 14.879 7.55577 14C7.55577 12.8213 8.02402 11.6908 8.85751 10.8573C9.69101 10.0238 10.8215 9.55556 12.0002 9.55556Z" fill="#5AE2D0"/>
</svg>
