<svg width="8" height="16" viewBox="0 0 8 16" fill="none" xmlns="http://www.w3.org/2000/svg">
<path d="M7.54083 2.31896C7.73635 2.11653 7.84453 1.84541 7.84208 1.56399C7.83964 1.28257 7.72676 1.01337 7.52776 0.814366C7.32876 0.615365 7.05956 0.502486 6.77814 0.500041C6.49672 0.497595 6.2256 0.605779 6.02317 0.801292L1.10096 5.7235C0.497313 6.32733 0.158203 7.14619 0.158203 8C0.158203 8.85381 0.497313 9.67267 1.10096 10.2765L6.02317 15.1987C6.2256 15.3942 6.49672 15.5024 6.77814 15.5C7.05956 15.4975 7.32876 15.3846 7.52776 15.1856C7.72676 14.9866 7.83964 14.7174 7.84208 14.436C7.84453 14.1546 7.73635 13.8835 7.54083 13.681L2.6154 8.75883C2.41419 8.55756 2.30115 8.2846 2.30115 8C2.30115 7.7154 2.41419 7.44244 2.6154 7.24117L7.54083 2.31896Z" fill="#D7E1EB"/>
</svg>
