<svg width="40" height="40" viewBox="0 0 40 40" fill="none" xmlns="http://www.w3.org/2000/svg">
<path d="M27.5398 24.1124L28.0716 24.6445C28.5856 25.1607 29.271 25.445 30.0007 25.445C30.7304 25.445 31.4158 25.1607 31.9289 24.6455L39.2007 17.3688C39.7165 16.8545 40.0006 16.1687 40.0006 15.4384C40.0006 14.7082 39.7165 14.0224 39.2016 13.5089L38.6689 12.9759C38.3138 12.6206 37.7385 12.6206 37.3834 12.9759L27.5398 22.8261C27.1847 23.1814 27.1847 23.757 27.5398 24.1124Z" fill="#5AE2D0"/>
<path d="M15.8766 12.4428C16.0541 12.6205 16.2868 12.7093 16.5194 12.7093C16.7519 12.7093 16.9845 12.6205 17.1621 12.4428L27.0058 2.5925C27.3609 2.23718 27.3609 1.66147 27.0058 1.30616L26.474 0.773994C25.4459 -0.258282 23.6428 -0.25743 22.6166 0.773142L15.3448 8.0497C14.829 8.56405 14.5449 9.24988 14.5449 9.98011C14.5449 10.7103 14.829 11.3962 15.3439 11.9097L15.8766 12.4428Z" fill="#5AE2D0"/>
<path d="M24.9677 21.5396C25.1453 21.7173 25.3779 21.8061 25.6105 21.8061C25.8431 21.8061 26.0757 21.7173 26.2533 21.5396L36.0969 11.6894C36.4521 11.334 36.4521 10.7583 36.0969 10.403L29.5771 3.87876C29.222 3.52345 28.6467 3.52345 28.2916 3.87876L18.448 13.729C18.0929 14.0843 18.0929 14.66 18.448 15.0154L19.7551 16.3233C12.7153 22.4275 3.66729 31.1848 1.06533 33.7885C0.378149 34.4761 0 35.3894 0 36.3612C0 38.3681 1.63081 40 3.63635 40C4.60759 40 5.52019 39.6216 6.20737 38.934C9.33952 35.7996 17.8778 26.9516 23.6824 20.2534L24.9677 21.5396Z" fill="#5AE2D0"/>
</svg>
