<svg width="12" height="12" viewBox="0 0 12 12" fill="none" xmlns="http://www.w3.org/2000/svg">
<path d="M8.26155 7.23364L8.42109 7.39328C8.57529 7.54812 8.78091 7.63342 8.99983 7.63342C9.21874 7.63342 9.42436 7.54812 9.57831 7.39356L11.7599 5.21058C11.9146 5.05627 11.9998 4.85053 11.9998 4.63146C11.9998 4.41239 11.9146 4.20664 11.7601 4.05259L11.6003 3.89269C11.4938 3.7861 11.3212 3.7861 11.2147 3.89269L8.26155 6.84776C8.155 6.95433 8.155 7.12702 8.26155 7.23364Z" fill="#5AE2D0"/>
<path d="M4.76278 3.73269C4.81604 3.786 4.88584 3.81265 4.95562 3.81265C5.0254 3.81265 5.09517 3.786 5.14846 3.73269L8.10158 0.777624C8.20813 0.67103 8.20813 0.498317 8.10158 0.391723L7.94204 0.232076C7.63361 -0.0776065 7.09269 -0.0773508 6.78482 0.23182L4.60324 2.41478C4.4485 2.56909 4.36328 2.77483 4.36328 2.9939C4.36328 3.21297 4.4485 3.41872 4.60298 3.57277L4.76278 3.73269Z" fill="#5AE2D0"/>
<path d="M7.49041 6.46181C7.54367 6.51512 7.61347 6.54176 7.68324 6.54176C7.75302 6.54176 7.82279 6.51512 7.87608 6.46181L10.8292 3.50674C10.9357 3.40014 10.9357 3.22743 10.8292 3.12083L8.87324 1.16356C8.7667 1.05697 8.59411 1.05697 8.48759 1.16356L5.53447 4.11863C5.42792 4.22523 5.42792 4.39794 5.53447 4.50453L5.92661 4.89693C3.81465 6.72818 1.1002 9.35536 0.319602 10.1365C0.113446 10.3428 0 10.6167 0 10.9083C0 11.5103 0.489247 11.9999 1.09092 11.9999C1.38229 11.9999 1.65608 11.8864 1.86223 11.6801C2.80189 10.7398 5.36342 8.08539 7.10481 6.07593L7.49041 6.46181Z" fill="#5AE2D0"/>
</svg>
