<svg width="40" height="54" viewBox="0 0 40 54" fill="none" xmlns="http://www.w3.org/2000/svg">
<path d="M20.0003 27C27.3641 27 33.3337 21.0305 33.3337 13.6667C33.3337 6.30288 27.3641 0.333344 20.0003 0.333344C12.6365 0.333344 6.66699 6.30288 6.66699 13.6667C6.66699 21.0305 12.6365 27 20.0003 27Z" fill="#A5E1FA"/>
<path d="M20 31.4445C14.6975 31.4504 9.61381 33.5594 5.86436 37.3088C2.11491 41.0583 0.0058819 46.142 0 51.4445C0 52.0339 0.234126 52.5991 0.650874 53.0158C1.06762 53.4326 1.63285 53.6667 2.22222 53.6667H37.7778C38.3671 53.6667 38.9324 53.4326 39.3491 53.0158C39.7659 52.5991 40 52.0339 40 51.4445C39.9941 46.142 37.8851 41.0583 34.1356 37.3088C30.3862 33.5594 25.3025 31.4504 20 31.4445V31.4445Z" fill="#A5E1FA"/>
</svg>
