<svg width="16" height="24" viewBox="0 0 16 24" fill="none" xmlns="http://www.w3.org/2000/svg">
<path d="M3.96181 0.333366V3.02567H0.37207V20.9744H3.96181V23.6667H5.75669V20.9744H7.55156V23.6667H9.34643V20.9744H10.6926C13.4091 20.9744 15.6285 18.755 15.6285 16.0385C15.6285 14.17 14.5875 12.5295 13.0484 11.6913C13.8036 11.0283 14.339 10.151 14.5834 9.17616C14.8277 8.20133 14.7694 7.17521 14.4162 6.23434C14.063 5.29347 13.4316 4.48248 12.6061 3.90928C11.7806 3.33609 10.8001 3.02788 9.79515 3.02567H9.34643V0.333366H7.55156V3.02567H5.75669V0.333366H3.96181ZM2.16694 4.82055H9.79515C11.5407 4.82055 12.9362 6.21606 12.9362 7.96157C12.9362 9.70708 11.5407 11.1026 9.79515 11.1026H2.16694V4.82055ZM2.16694 12.8975H10.6926C12.4381 12.8975 13.8336 14.293 13.8336 16.0385C13.8336 17.784 12.4381 19.1795 10.6926 19.1795H2.16694V12.8975Z" fill="#D7E1EB"/>
</svg>
