<svg width="20" height="22" viewBox="0 0 20 22" fill="none" xmlns="http://www.w3.org/2000/svg">
<path d="M1.76384 21.7802C2.25527 21.996 2.79859 22.0546 3.32293 21.9484C3.84726 21.8421 4.32827 21.576 4.70319 21.1846L9.9996 15.7715L15.296 21.1846C15.543 21.4421 15.8372 21.6467 16.1616 21.7865C16.486 21.9264 16.8342 21.9987 17.186 21.9994C17.5476 21.9983 17.9054 21.9238 18.239 21.7802C18.7344 21.5741 19.1579 21.2194 19.4541 20.7622C19.7503 20.305 19.9055 19.7667 19.8994 19.2174V4.62425C19.898 3.39827 19.4234 2.22293 18.5799 1.35603C17.7363 0.489136 16.5925 0.00146853 15.3995 0L4.59969 0C3.40668 0.00146853 2.26293 0.489136 1.41934 1.35603C0.575752 2.22293 0.101195 3.39827 0.0997661 4.62425V19.2174C0.0939583 19.7671 0.249682 20.3057 0.546576 20.763C0.843469 21.2202 1.26771 21.5747 1.76384 21.7802Z" fill="#A5AFBE"/>
</svg>
