<svg width="18" height="18" viewBox="0 0 18 18" fill="none" xmlns="http://www.w3.org/2000/svg">
<path d="M3.22953 16.3501C3.57385 16.4973 3.95453 16.5372 4.32191 16.4648C4.68929 16.3924 5.02631 16.2109 5.289 15.944L8.99995 12.2533L12.7109 15.944C12.8839 16.1196 13.0901 16.2591 13.3174 16.3544C13.5447 16.4498 13.7886 16.4991 14.0351 16.4996C14.2885 16.4988 14.5392 16.4481 14.7729 16.3501C15.12 16.2096 15.4168 15.9678 15.6243 15.656C15.8319 15.3443 15.9406 14.9773 15.9363 14.6028V4.65289C15.9353 3.817 15.6028 3.01563 15.0118 2.42457C14.4207 1.8335 13.6193 1.501 12.7834 1.5L5.21648 1.5C4.38059 1.501 3.57922 1.8335 2.98815 2.42457C2.39709 3.01563 2.06459 3.817 2.06359 4.65289V14.6028C2.05952 14.9776 2.16863 15.3448 2.37665 15.6566C2.58467 15.9683 2.88192 16.21 3.22953 16.3501V16.3501Z" fill="#323C46"/>
</svg>
