<svg width="40" height="40" viewBox="0 0 40 40" fill="none" xmlns="http://www.w3.org/2000/svg">
<path d="M29.7219 8.8889H28.1941C27.8718 7.32142 27.0189 5.91299 25.7792 4.90101C24.5395 3.88902 22.9888 3.33536 21.3886 3.33334L18.6108 3.33334C17.0105 3.33536 15.4598 3.88902 14.2202 4.90101C12.9805 5.91299 12.1276 7.32142 11.8052 8.8889H10.2775C8.43635 8.8911 6.67128 9.62346 5.36942 10.9253C4.06757 12.2272 3.33521 13.9922 3.33301 15.8333L3.33301 20H36.6663V15.8333C36.6641 13.9922 35.9318 12.2272 34.6299 10.9253C33.3281 9.62346 31.563 8.8911 29.7219 8.8889ZM14.6997 8.8889C14.9859 8.0793 15.5153 7.37791 16.2154 6.88069C16.9155 6.38346 17.7521 6.11468 18.6108 6.11112H21.3886C22.2473 6.11468 23.0839 6.38346 23.784 6.88069C24.4841 7.37791 25.0134 8.0793 25.2997 8.8889H14.6997Z" fill="#5AE2D0"/>
<path d="M21.3886 24.1667C21.3886 24.535 21.2422 24.8883 20.9818 25.1488C20.7213 25.4092 20.368 25.5555 19.9997 25.5555C19.6313 25.5555 19.278 25.4092 19.0176 25.1488C18.7571 24.8883 18.6108 24.535 18.6108 24.1667V22.7778H3.33301V29.7222C3.33521 31.5633 4.06757 33.3284 5.36942 34.6302C6.67128 35.9321 8.43635 36.6645 10.2775 36.6667H29.7219C31.563 36.6645 33.3281 35.9321 34.6299 34.6302C35.9318 33.3284 36.6641 31.5633 36.6663 29.7222V22.7778H21.3886V24.1667Z" fill="#5AE2D0"/>
</svg>
