<svg width="18" height="18" viewBox="0 0 18 18" fill="none" xmlns="http://www.w3.org/2000/svg">
<path d="M15.8797 4.04813C15.7039 3.83715 15.4838 3.66747 15.235 3.55113C14.9863 3.4348 14.715 3.37466 14.4403 3.375H4.33533L4.30908 3.15562C4.25536 2.69964 4.0362 2.27921 3.69314 1.97405C3.35008 1.66889 2.90697 1.50021 2.44783 1.5L2.30908 1.5C2.14332 1.5 1.98435 1.56585 1.86714 1.68306C1.74993 1.80027 1.68408 1.95924 1.68408 2.125C1.68408 2.29076 1.74993 2.44973 1.86714 2.56694C1.98435 2.68415 2.14332 2.75 2.30908 2.75H2.44783C2.60092 2.75002 2.74867 2.80622 2.86306 2.90795C2.97746 3.00967 3.05055 3.14984 3.06846 3.30187L3.92846 10.6144C4.01774 11.3749 4.38313 12.0761 4.95527 12.585C5.52742 13.0939 6.26649 13.375 7.03221 13.375H13.5591C13.7248 13.375 13.8838 13.3092 14.001 13.1919C14.1182 13.0747 14.1841 12.9158 14.1841 12.75C14.1841 12.5842 14.1182 12.4253 14.001 12.3081C13.8838 12.1908 13.7248 12.125 13.5591 12.125H7.03221C6.64537 12.1239 6.26833 12.0032 5.95279 11.7794C5.63725 11.5556 5.39865 11.2397 5.26971 10.875H12.7197C13.4524 10.875 14.1618 10.6176 14.724 10.1478C15.2861 9.6779 15.6654 9.02544 15.7953 8.30438L16.286 5.58312C16.3349 5.31313 16.3239 5.03567 16.2537 4.7704C16.1835 4.50513 16.0558 4.25855 15.8797 4.04813V4.04813Z" fill="#323C46"/>
<path d="M6.05908 16.4999C6.74944 16.4999 7.30908 15.9403 7.30908 15.2499C7.30908 14.5596 6.74944 13.9999 6.05908 13.9999C5.36873 13.9999 4.80908 14.5596 4.80908 15.2499C4.80908 15.9403 5.36873 16.4999 6.05908 16.4999Z" fill="#323C46"/>
<path d="M12.3091 16.4999C12.9994 16.4999 13.5591 15.9403 13.5591 15.2499C13.5591 14.5596 12.9994 13.9999 12.3091 13.9999C11.6187 13.9999 11.0591 14.5596 11.0591 15.2499C11.0591 15.9403 11.6187 16.4999 12.3091 16.4999Z" fill="#323C46"/>
</svg>
