<svg width="22" height="22" viewBox="0 0 22 22" fill="none" xmlns="http://www.w3.org/2000/svg">
<path d="M21.082 3.73725C20.8209 3.42782 20.4941 3.17895 20.1246 3.00833C19.7552 2.83771 19.3522 2.74951 18.9444 2.75H3.93739L3.8984 2.42825C3.81862 1.75947 3.49314 1.14284 2.98366 0.695271C2.47418 0.247705 1.81612 0.000313311 1.13425 0L0.928191 0C0.68202 0 0.445931 0.0965771 0.271861 0.268485C0.0977913 0.440394 0 0.673552 0 0.916667C0 1.15978 0.0977913 1.39294 0.271861 1.56485C0.445931 1.73676 0.68202 1.83333 0.928191 1.83333H1.13425C1.36159 1.83336 1.58102 1.91579 1.75091 2.06499C1.92081 2.21419 2.02934 2.41977 2.05594 2.64275L3.33313 13.3678C3.46573 14.4831 4.00837 15.5116 4.85807 16.258C5.70776 17.0044 6.80536 17.4167 7.94253 17.4167H17.6356C17.8818 17.4167 18.1179 17.3201 18.292 17.1482C18.466 16.9763 18.5638 16.7431 18.5638 16.5C18.5638 16.2569 18.466 16.0237 18.292 15.8518C18.1179 15.6799 17.8818 15.5833 17.6356 15.5833H7.94253C7.36803 15.5817 6.8081 15.4047 6.33949 15.0765C5.87088 14.7483 5.51653 14.2849 5.32503 13.75H16.3891C17.4772 13.7501 18.5307 13.3725 19.3656 12.6834C20.2005 11.9943 20.7637 11.0373 20.9567 9.97975L21.6853 5.98858C21.7581 5.59259 21.7417 5.18565 21.6375 4.79658C21.5332 4.40752 21.3436 4.04587 21.082 3.73725Z" fill="#A5AFBE"/>
<path d="M6.49798 22C7.52324 22 8.35437 21.1792 8.35437 20.1667C8.35437 19.1542 7.52324 18.3333 6.49798 18.3333C5.47273 18.3333 4.6416 19.1542 4.6416 20.1667C4.6416 21.1792 5.47273 22 6.49798 22Z" fill="#A5AFBE"/>
<path d="M15.7792 22C16.8045 22 17.6356 21.1792 17.6356 20.1667C17.6356 19.1542 16.8045 18.3333 15.7792 18.3333C14.754 18.3333 13.9229 19.1542 13.9229 20.1667C13.9229 21.1792 14.754 22 15.7792 22Z" fill="#A5AFBE"/>
</svg>
