<svg width="22" height="22" viewBox="0 0 22 22" fill="none" xmlns="http://www.w3.org/2000/svg">
<path d="M3.36875 0H6.80625C8.59375 0 10.0375 1.44375 10.0375 3.23125V6.7375C10.0375 8.525 8.59375 9.96875 6.80625 9.96875H3.23125C1.44375 9.96875 0 8.525 0 6.7375V3.3C0 1.5125 1.5125 0 3.36875 0ZM15.3312 0H18.7687C20.5562 0 22 1.44375 22 3.23125V6.7375C22 8.525 20.5562 9.96875 18.7687 9.96875H15.2625C13.475 9.96875 12.0312 8.525 12.0312 6.7375V3.3C12.0312 1.5125 13.475 0 15.3312 0ZM19.5938 2.40625C19.25 2.2 18.7687 2.26875 18.5625 2.68125L16.6375 5.84375L15.6063 3.9875C15.4 3.64375 14.9188 3.50625 14.575 3.7125C14.2313 3.91875 14.0937 4.4 14.3 4.74375L15.95 7.35625C16.0188 7.5625 16.2938 7.7 16.5 7.7C16.5688 7.7 16.9125 7.7 16.9813 7.7C17.1875 7.7 17.3937 7.5625 17.4625 7.35625L19.9375 3.4375C20.075 3.09375 19.9375 2.6125 19.5938 2.40625ZM15.3312 12.0312H18.7687C20.5562 12.0312 22 13.475 22 15.2625V18.7687C22 20.5562 20.5562 22 18.7687 22H15.2625C13.475 22 12.0312 20.5562 12.0312 18.7687V15.3312C12.0312 13.5437 13.475 12.0312 15.3312 12.0312ZM19.5938 14.4375C19.25 14.2312 18.7687 14.3 18.5625 14.7125L16.6375 17.875L15.6063 16.0187C15.4 15.675 14.9188 15.5375 14.575 15.7437C14.2313 15.95 14.0937 16.4312 14.3 16.775L15.95 19.3875C16.0188 19.5938 16.2938 19.7313 16.5 19.7313C16.5688 19.7313 16.9125 19.7313 16.9813 19.7313C17.1875 19.7313 17.3937 19.5938 17.4625 19.3875L19.9375 15.4688C20.075 15.125 19.9375 14.6438 19.5938 14.4375ZM3.36875 12.0312H6.80625C8.59375 12.0312 10.0375 13.475 10.0375 15.2625V18.7687C10.0375 20.5562 8.59375 22 6.80625 22H3.23125C1.44375 22 0 20.5562 0 18.7687V15.3312C0 13.475 1.5125 12.0312 3.36875 12.0312Z" fill="#A5AFBE"/>
</svg>
