<svg width="18" height="18" viewBox="0 0 18 18" fill="none" xmlns="http://www.w3.org/2000/svg">
<path d="M9.00053 17.3333C9.9172 17.3333 10.6672 16.5833 10.6672 15.6666H7.33387C7.33387 16.5833 8.08387 17.3333 9.00053 17.3333ZM14.0005 7.33329C14.0005 5.00829 12.4089 3.04996 10.2505 2.49996V1.91663C10.2505 1.22496 9.6922 0.666626 9.00053 0.666626C8.30887 0.666626 7.75053 1.22496 7.75053 1.91663V2.49996C5.5922 3.04996 4.00053 5.00829 4.00053 7.33329V13.1666H3.1672C2.70887 13.1666 2.33387 13.5416 2.33387 14C2.33387 14.4583 2.70887 14.8333 3.1672 14.8333H14.8339C15.2922 14.8333 15.6672 14.4583 15.6672 14C15.6672 13.5416 15.2922 13.1666 14.8339 13.1666H14.0005V7.33329ZM4.12553 1.62496C3.7922 1.29163 3.25053 1.29996 2.92553 1.64163C1.69395 2.95032 0.919206 4.62261 0.7172 6.40829C0.6672 6.89996 1.05887 7.33329 1.55053 7.33329C1.9672 7.33329 2.32553 7.02496 2.37553 6.60829C2.53387 5.13329 3.18387 3.79996 4.1422 2.76663C4.45053 2.44996 4.4422 1.94163 4.12553 1.62496ZM13.8839 1.63329C13.5672 1.94996 13.5589 2.45829 13.8672 2.78329C14.8592 3.83366 15.4797 5.18011 15.6339 6.61663C15.6755 7.03329 16.0422 7.34163 16.4589 7.34163C16.5765 7.34234 16.6929 7.31816 16.8005 7.27067C16.908 7.22318 17.0043 7.15346 17.0831 7.06609C17.1618 6.97872 17.2211 6.87568 17.2571 6.76374C17.2932 6.65181 17.3051 6.53351 17.2922 6.41663C17.0922 4.58329 16.2922 2.93329 15.0922 1.65829C14.7589 1.30829 14.2172 1.29996 13.8839 1.63329Z" fill="#F9F9F9"/>
</svg>
