<svg width="18" height="18" viewBox="0 0 18 18" fill="none" xmlns="http://www.w3.org/2000/svg">
<path d="M2.4 2C2.24087 2 2.08826 2.06146 1.97574 2.17085C1.86321 2.28025 1.8 2.42862 1.8 2.58333C1.8 2.73804 1.86321 2.88642 1.97574 2.99581C2.08826 3.10521 2.24087 3.16667 2.4 3.16667H3.2336L1.044 8.391C1.01483 8.46091 0.999888 8.53567 1 8.61111C1 8.9686 1.07242 9.32259 1.21314 9.65286C1.35385 9.98314 1.5601 10.2832 1.8201 10.536C2.08011 10.7888 2.38878 10.9893 2.72849 11.1261C3.0682 11.2629 3.4323 11.3333 3.8 11.3333C4.1677 11.3333 4.5318 11.2629 4.87151 11.1261C5.21123 10.9893 5.5199 10.7888 5.7799 10.536C6.0399 10.2832 6.24615 9.98314 6.38686 9.65286C6.52758 9.32259 6.6 8.9686 6.6 8.61111C6.60011 8.53567 6.58517 8.46091 6.556 8.391L4.3664 3.16667H8.4V12.5H5.2024C4.72501 12.5 4.26717 12.6844 3.92961 13.0126C3.59204 13.3408 3.4024 13.7859 3.4024 14.25C3.4024 14.7141 3.59204 15.1592 3.92961 15.4874C4.26717 15.8156 4.72501 16 5.2024 16H12.8C13.2774 16 13.7352 15.8156 14.0728 15.4874C14.4104 15.1592 14.6 14.7141 14.6 14.25C14.6 13.7859 14.4104 13.3408 14.0728 13.0126C13.7352 12.6844 13.2774 12.5 12.8 12.5H9.6V3.16667H13.6336L11.444 8.391C11.4148 8.46091 11.3999 8.53567 11.4 8.61111C11.4 9.33309 11.695 10.0255 12.2201 10.536C12.7452 11.0465 13.4574 11.3333 14.2 11.3333C14.9426 11.3333 15.6548 11.0465 16.1799 10.536C16.705 10.0255 17 9.33309 17 8.61111C17.0001 8.53567 16.9852 8.46091 16.956 8.391L14.7664 3.16667H15.6C15.7591 3.16667 15.9117 3.10521 16.0243 2.99581C16.1368 2.88642 16.2 2.73804 16.2 2.58333C16.2 2.42862 16.1368 2.28025 16.0243 2.17085C15.9117 2.06146 15.7591 2 15.6 2H2.4ZM3.8 4.90733L5.108 8.02778H2.492L3.8 4.90733ZM12.892 8.02778L14.2 4.90733L15.508 8.02778H12.892Z" fill="#A5B4C3"/>
</svg>
