<svg width="18" height="18" viewBox="0 0 18 18" fill="none" xmlns="http://www.w3.org/2000/svg">
<path d="M2.8125 2.25C2.66332 2.25 2.52024 2.30926 2.41475 2.41475C2.30926 2.52024 2.25 2.66332 2.25 2.8125C2.25 2.96168 2.30926 3.10476 2.41475 3.21025C2.52024 3.31574 2.66332 3.375 2.8125 3.375H3.594L1.54125 8.41275C1.5139 8.48017 1.4999 8.55225 1.5 8.625C1.5 8.96972 1.5679 9.31106 1.69982 9.62954C1.83174 9.94802 2.02509 10.2374 2.26885 10.4812C2.5126 10.7249 2.80198 10.9183 3.12046 11.0502C3.43894 11.1821 3.78028 11.25 4.125 11.25C4.46972 11.25 4.81107 11.1821 5.12955 11.0502C5.44802 10.9183 5.7374 10.7249 5.98116 10.4812C6.22491 10.2374 6.41827 9.94802 6.55019 9.62954C6.6821 9.31106 6.75 8.96972 6.75 8.625C6.75011 8.55225 6.7361 8.48017 6.70875 8.41275L4.656 3.375H8.4375V12.375H5.43975C4.9922 12.375 4.56298 12.5528 4.24651 12.8693C3.93004 13.1857 3.75225 13.6149 3.75225 14.0625C3.75225 14.5101 3.93004 14.9393 4.24651 15.2557C4.56298 15.5722 4.9922 15.75 5.43975 15.75H12.5625C13.0101 15.75 13.4393 15.5722 13.7557 15.2557C14.0722 14.9393 14.25 14.5101 14.25 14.0625C14.25 13.6149 14.0722 13.1857 13.7557 12.8693C13.4393 12.5528 13.0101 12.375 12.5625 12.375H9.5625V3.375H13.344L11.2913 8.41275C11.2639 8.48017 11.2499 8.55225 11.25 8.625C11.25 9.32119 11.5266 9.98887 12.0188 10.4812C12.5111 10.9734 13.1788 11.25 13.875 11.25C14.5712 11.25 15.2389 10.9734 15.7312 10.4812C16.2234 9.98887 16.5 9.32119 16.5 8.625C16.5001 8.55225 16.4861 8.48017 16.4588 8.41275L14.406 3.375H15.1875C15.3367 3.375 15.4798 3.31574 15.5852 3.21025C15.6907 3.10476 15.75 2.96168 15.75 2.8125C15.75 2.66332 15.6907 2.52024 15.5852 2.41475C15.4798 2.30926 15.3367 2.25 15.1875 2.25H2.8125ZM4.125 5.0535L5.35125 8.0625H2.89875L4.125 5.0535ZM12.6488 8.0625L13.875 5.0535L15.1013 8.0625H12.6488Z" fill="#323C46"/>
</svg>
