<svg width="22" height="21" viewBox="0 0 22 21" fill="none" xmlns="http://www.w3.org/2000/svg">
<path d="M1.925 0.375C1.7062 0.375 1.49636 0.461919 1.34164 0.616637C1.18692 0.771354 1.1 0.981196 1.1 1.2C1.1 1.4188 1.18692 1.62865 1.34164 1.78336C1.49636 1.93808 1.7062 2.025 1.925 2.025H3.0712L0.0605009 9.4137C0.0203928 9.51258 -0.000153494 9.6183 8.63302e-07 9.725C8.55768e-07 10.2306 0.099584 10.7312 0.293065 11.1983C0.486545 11.6654 0.770134 12.0899 1.12764 12.4474C1.48515 12.8049 1.90957 13.0885 2.37667 13.2819C2.84377 13.4754 3.34441 13.575 3.85 13.575C4.35559 13.575 4.85623 13.4754 5.32333 13.2819C5.79044 13.0885 6.21486 12.8049 6.57236 12.4474C6.92987 12.0899 7.21346 11.6654 7.40694 11.1983C7.60042 10.7312 7.7 10.2306 7.7 9.725C7.70015 9.6183 7.67961 9.51258 7.6395 9.4137L4.6288 2.025H10.175V15.225H5.7783C5.12189 15.225 4.49236 15.4858 4.02821 15.9499C3.56406 16.4141 3.3033 17.0436 3.3033 17.7C3.3033 18.3564 3.56406 18.9859 4.02821 19.4501C4.49236 19.9142 5.12189 20.175 5.7783 20.175H16.225C16.8814 20.175 17.5109 19.9142 17.9751 19.4501C18.4392 18.9859 18.7 18.3564 18.7 17.7C18.7 17.0436 18.4392 16.4141 17.9751 15.9499C17.5109 15.4858 16.8814 15.225 16.225 15.225H11.825V2.025H17.3712L14.3605 9.4137C14.3204 9.51258 14.2998 9.6183 14.3 9.725C14.3 10.7461 14.7056 11.7253 15.4276 12.4474C16.1497 13.1694 17.1289 13.575 18.15 13.575C19.1711 13.575 20.1503 13.1694 20.8724 12.4474C21.5944 11.7253 22 10.7461 22 9.725C22.0002 9.6183 21.9796 9.51258 21.9395 9.4137L18.9288 2.025H20.075C20.2938 2.025 20.5036 1.93808 20.6584 1.78336C20.8131 1.62865 20.9 1.4188 20.9 1.2C20.9 0.981196 20.8131 0.771354 20.6584 0.616637C20.5036 0.461919 20.2938 0.375 20.075 0.375H1.925ZM3.85 4.4868L5.6485 8.9H2.0515L3.85 4.4868ZM16.3515 8.9L18.15 4.4868L19.9485 8.9H16.3515Z" fill="#A5AFBE"/>
</svg>
