<svg width="19" height="19" viewBox="0 0 19 19" fill="none" xmlns="http://www.w3.org/2000/svg">
<path d="M14.6038 3.66667C14.6038 2.89312 14.2965 2.15125 13.7496 1.60427C13.2026 1.05729 12.4607 0.75 11.6872 0.75L7.31217 0.75C6.53863 0.75 5.79676 1.05729 5.24978 1.60427C4.7028 2.15125 4.39551 2.89312 4.39551 3.66667V4.39583H14.6038V3.66667Z" fill="#41D8C2"/>
<path d="M12.4163 11.6875H6.58301C5.37488 11.6875 4.39551 12.6669 4.39551 13.875V16.0625C4.39551 17.2706 5.37488 18.25 6.58301 18.25H12.4163C13.6245 18.25 14.6038 17.2706 14.6038 16.0625V13.875C14.6038 12.6669 13.6245 11.6875 12.4163 11.6875Z" fill="#41D8C2"/>
<path d="M14.6042 5.85417H4.39583C3.42925 5.85533 2.50259 6.23981 1.81912 6.92329C1.13564 7.60677 0.751158 8.53343 0.75 9.50001L0.75 12.4167C0.750932 13.1253 0.958327 13.8182 1.34682 14.4108C1.73532 15.0034 2.28808 15.4699 2.9375 15.7533V13.875C2.93866 12.9084 3.32314 11.9818 4.00662 11.2983C4.69009 10.6148 5.61675 10.2303 6.58333 10.2292H12.4167C13.3832 10.2303 14.3099 10.6148 14.9934 11.2983C15.6769 11.9818 16.0613 12.9084 16.0625 13.875V15.7533C16.7119 15.4699 17.2647 15.0034 17.6532 14.4108C18.0417 13.8182 18.2491 13.1253 18.25 12.4167V9.50001C18.2488 8.53343 17.8644 7.60677 17.1809 6.92329C16.4974 6.23981 15.5707 5.85533 14.6042 5.85417ZM13.875 8.77084H12.4167C12.2233 8.77084 12.0378 8.69402 11.9011 8.55727C11.7643 8.42053 11.6875 8.23506 11.6875 8.04167C11.6875 7.84829 11.7643 7.66282 11.9011 7.52607C12.0378 7.38933 12.2233 7.31251 12.4167 7.31251H13.875C14.0684 7.31251 14.2539 7.38933 14.3906 7.52607C14.5273 7.66282 14.6042 7.84829 14.6042 8.04167C14.6042 8.23506 14.5273 8.42053 14.3906 8.55727C14.2539 8.69402 14.0684 8.77084 13.875 8.77084Z" fill="#41D8C2"/>
</svg>
