<svg width="40" height="40" viewBox="0 0 40 40" fill="none" xmlns="http://www.w3.org/2000/svg">
<path d="M25.5329 20.9724V17.2225C25.5329 16.8541 25.6792 16.5008 25.9397 16.2404C26.2002 15.9799 26.5534 15.8336 26.9218 15.8336H28.3106C28.679 15.8336 29.0323 15.6873 29.2927 15.4268C29.5532 15.1663 29.6995 14.8131 29.6995 14.4447V13.0558C29.6995 12.6875 29.8458 12.3342 30.1063 12.0738C30.3668 11.8133 30.72 11.667 31.0884 11.667H34.8175C35.0884 11.6657 35.3532 11.5864 35.5803 11.4386C35.8074 11.2908 35.9871 11.0808 36.098 10.8336C36.5671 9.80057 36.7476 8.65972 36.6203 7.5323C36.4616 6.35847 35.8787 5.28333 34.9816 4.50983C34.0845 3.73633 32.9353 3.31798 31.7509 3.33374C30.0797 3.33385 28.477 3.9978 27.2954 5.17955L16.3122 16.16C14.5418 15.7 12.6805 15.7231 10.922 16.2266C8.50265 16.9108 6.41239 18.4469 5.03692 20.5514C3.66145 22.656 3.0936 25.1871 3.43814 27.6776C3.78268 30.1681 5.01637 32.4499 6.91156 34.102C8.80674 35.7541 11.2355 36.665 13.7497 36.6666C14.1134 36.6663 14.4769 36.6473 14.8386 36.6097C16.9082 36.3844 18.8635 35.5464 20.454 34.2031C22.0445 32.8598 23.1978 31.0723 23.7663 29.0695C24.2714 27.3117 24.294 25.4503 23.8315 23.6807L24.7343 22.7779C25.2144 22.2954 25.4988 21.6522 25.5329 20.9724ZM10.965 31.1112C10.553 31.1112 10.1502 30.989 9.80762 30.7601C9.46502 30.5311 9.198 30.2058 9.04032 29.8251C8.88263 29.4444 8.84138 29.0255 8.92176 28.6214C9.00215 28.2173 9.20056 27.8461 9.49192 27.5547C9.78328 27.2634 10.1545 27.065 10.5586 26.9846C10.9627 26.9042 11.3816 26.9455 11.7623 27.1031C12.143 27.2608 12.4683 27.5278 12.6972 27.8704C12.9262 28.213 13.0483 28.6158 13.0483 29.0279C13.0483 29.5804 12.8289 30.1103 12.4382 30.501C12.0475 30.8917 11.5176 31.1112 10.965 31.1112Z" fill="#5AE2D0"/>
</svg>
