<svg width="22" height="23" viewBox="0 0 22 23" fill="none" xmlns="http://www.w3.org/2000/svg">
<path d="M1.925 0.5C1.7062 0.5 1.49636 0.594821 1.34164 0.763604C1.18692 0.932386 1.1 1.1613 1.1 1.4C1.1 1.63869 1.18692 1.86761 1.34164 2.0364C1.49636 2.20518 1.7062 2.3 1.925 2.3H3.0712L0.0605009 10.3604C0.0203928 10.4683 -0.000153494 10.5836 8.63302e-07 10.7C8.55768e-07 11.2515 0.099584 11.7977 0.293065 12.3073C0.486545 12.8168 0.770134 13.2798 1.12764 13.6698C1.48515 14.0598 1.90957 14.3692 2.37667 14.5803C2.84377 14.7914 3.34441 14.9 3.85 14.9C4.35559 14.9 4.85623 14.7914 5.32333 14.5803C5.79044 14.3692 6.21486 14.0598 6.57236 13.6698C6.92987 13.2798 7.21346 12.8168 7.40694 12.3073C7.60042 11.7977 7.7 11.2515 7.7 10.7C7.70015 10.5836 7.67961 10.4683 7.6395 10.3604L4.6288 2.3H10.175V16.7H5.7783C5.12189 16.7 4.49236 16.9845 4.02821 17.4908C3.56406 17.9972 3.3033 18.6839 3.3033 19.4C3.3033 20.1161 3.56406 20.8028 4.02821 21.3092C4.49236 21.8155 5.12189 22.1 5.7783 22.1H16.225C16.8814 22.1 17.5109 21.8155 17.9751 21.3092C18.4392 20.8028 18.7 20.1161 18.7 19.4C18.7 18.6839 18.4392 17.9972 17.9751 17.4908C17.5109 16.9845 16.8814 16.7 16.225 16.7H11.825V2.3H17.3712L14.3605 10.3604C14.3204 10.4683 14.2998 10.5836 14.3 10.7C14.3 11.8139 14.7056 12.8822 15.4276 13.6698C16.1497 14.4575 17.1289 14.9 18.15 14.9C19.1711 14.9 20.1503 14.4575 20.8724 13.6698C21.5944 12.8822 22 11.8139 22 10.7C22.0002 10.5836 21.9796 10.4683 21.9395 10.3604L18.9288 2.3H20.075C20.2938 2.3 20.5036 2.20518 20.6584 2.0364C20.8131 1.86761 20.9 1.63869 20.9 1.4C20.9 1.1613 20.8131 0.932386 20.6584 0.763604C20.5036 0.594821 20.2938 0.5 20.075 0.5H1.925ZM3.85 4.9856L5.6485 9.79999H2.0515L3.85 4.9856ZM16.3515 9.79999L18.15 4.9856L19.9485 9.79999H16.3515Z" fill="#C3BEFF"/>
</svg>
