<svg width="28" height="28" viewBox="0 0 28 28" fill="none" xmlns="http://www.w3.org/2000/svg">
<path d="M26.2308 5.19663C25.9183 4.82156 25.527 4.5199 25.0847 4.31309C24.6425 4.10627 24.1601 3.99936 23.6719 3.99996H5.70747L5.66081 3.60996C5.56531 2.79931 5.17568 2.05188 4.5658 1.50938C3.95591 0.966874 3.16817 0.667006 2.35192 0.666626L2.10525 0.666626C1.81057 0.666626 1.52795 0.783689 1.31958 0.992063C1.1112 1.20044 0.994141 1.48305 0.994141 1.77774C0.994141 2.07242 1.1112 2.35504 1.31958 2.56341C1.52795 2.77179 1.81057 2.88885 2.10525 2.88885H2.35192C2.62407 2.88888 2.88674 2.9888 3.09011 3.16964C3.29348 3.35049 3.42341 3.59968 3.45525 3.86996L4.98414 16.87C5.14286 18.2219 5.79245 19.4686 6.80959 20.3733C7.82674 21.278 9.14065 21.7778 10.5019 21.7777H22.1053C22.3999 21.7777 22.6826 21.6607 22.8909 21.4523C23.0993 21.2439 23.2164 20.9613 23.2164 20.6666C23.2164 20.3719 23.0993 20.0893 22.8909 19.881C22.6826 19.6726 22.3999 19.5555 22.1053 19.5555H10.5019C9.8142 19.5536 9.14392 19.339 8.58296 18.9411C8.022 18.5433 7.59782 17.9817 7.36858 17.3333H20.613C21.9156 17.3334 23.1767 16.8758 24.1762 16.0404C25.1756 15.2051 25.8497 14.0452 26.0808 12.7633L26.953 7.92552C27.0401 7.44552 27.0205 6.95226 26.8957 6.48067C26.7709 6.00908 26.5439 5.57071 26.2308 5.19663Z" fill="#5AE2D0"/>
<path d="M8.77203 27.3332C9.99933 27.3332 10.9942 26.3383 10.9942 25.111C10.9942 23.8837 9.99933 22.8888 8.77203 22.8888C7.54473 22.8888 6.5498 23.8837 6.5498 25.111C6.5498 26.3383 7.54473 27.3332 8.77203 27.3332Z" fill="#5AE2D0"/>
<path d="M19.8834 27.3332C21.1107 27.3332 22.1056 26.3383 22.1056 25.111C22.1056 23.8837 21.1107 22.8888 19.8834 22.8888C18.6561 22.8888 17.6611 23.8837 17.6611 25.111C17.6611 26.3383 18.6561 27.3332 19.8834 27.3332Z" fill="#5AE2D0"/>
</svg>
