<svg width="20" height="24" viewBox="0 0 20 24" fill="none" xmlns="http://www.w3.org/2000/svg">
<path d="M1.76384 23.7602C2.25527 23.9957 2.7986 24.0596 3.32293 23.9437C3.84727 23.8278 4.32827 23.5374 4.70319 23.1105L9.9996 17.2052L15.296 23.1105C15.543 23.3914 15.8372 23.6145 16.1616 23.7671C16.486 23.9197 16.8342 23.9986 17.186 23.9993C17.5476 23.9982 17.9055 23.9169 18.239 23.7602C18.7344 23.5354 19.1579 23.1484 19.4541 22.6497C19.7503 22.1509 19.9055 21.5636 19.8994 20.9645V5.04463C19.898 3.7072 19.4235 2.42501 18.5799 1.47931C17.7363 0.533603 16.5925 0.00160203 15.3995 0L4.59969 0C3.40668 0.00160203 2.26293 0.533603 1.41934 1.47931C0.575752 2.42501 0.101195 3.7072 0.0997661 5.04463V20.9645C0.0939583 21.5641 0.249682 22.1517 0.546576 22.6505C0.84347 23.1493 1.26771 23.5361 1.76384 23.7602Z" fill="#C3BEFF"/>
</svg>
