<svg width="18" height="18" viewBox="0 0 18 18" fill="none" xmlns="http://www.w3.org/2000/svg">
<g clip-path="url(#clip0)">
<path fill-rule="evenodd" clip-rule="evenodd" d="M18 2.57159C18 2.2306 17.8645 1.90358 17.6234 1.66246C17.3823 1.42135 17.0553 1.28589 16.7143 1.28589H1.28591C0.944923 1.28589 0.617899 1.42135 0.376783 1.66246C0.135668 1.90358 0.000211716 2.2306 0.000211716 2.57159C0.000211716 2.91258 0.135668 3.2396 0.376783 3.48071C0.617899 3.72183 0.944923 3.85729 1.28591 3.85729H16.7143C17.0553 3.85729 17.3823 3.72183 17.6234 3.48071C17.8645 3.2396 18 2.91258 18 2.57159Z" fill="#A5AFBE"/>
<path fill-rule="evenodd" clip-rule="evenodd" d="M18 9.00019C18 8.6592 17.8645 8.33218 17.6234 8.09107C17.3823 7.84995 17.0553 7.71449 16.7143 7.71449H1.28591C0.944923 7.71449 0.617899 7.84995 0.376783 8.09107C0.135668 8.33218 0.000211716 8.6592 0.000211716 9.00019C0.000211716 9.34118 0.135668 9.6682 0.376783 9.90932C0.617899 10.1504 0.944923 10.2859 1.28591 10.2859H16.7143C17.0553 10.2859 17.3823 10.1504 17.6234 9.90932C17.8645 9.6682 18 9.34118 18 9.00019Z" fill="#A5AFBE"/>
<path fill-rule="evenodd" clip-rule="evenodd" d="M10.2852 15.4285C10.2852 15.0875 10.1497 14.7605 9.90858 14.5194C9.66747 14.2782 9.34045 14.1428 8.99946 14.1428H1.28526C0.944272 14.1428 0.617249 14.2782 0.376133 14.5194C0.135017 14.7605 -0.00043869 15.0875 -0.00043869 15.4285C-0.00043869 15.7695 0.135017 16.0965 0.376133 16.3376C0.617249 16.5787 0.944272 16.7142 1.28526 16.7142H8.99946C9.34045 16.7142 9.66747 16.5787 9.90858 16.3376C10.1497 16.0965 10.2852 15.7695 10.2852 15.4285Z" fill="#A5AFBE"/>
</g>
<defs>
<clipPath id="clip0">
<rect width="18" height="18" fill="white" transform="matrix(-1 0 0 1 18 0)"/>
</clipPath>
</defs>
</svg>
