<svg width="20" height="20" viewBox="0 0 20 20" fill="none" xmlns="http://www.w3.org/2000/svg">
<path d="M10 18.3333C10.9167 18.3333 11.6667 17.5833 11.6667 16.6667H8.33338C8.33338 17.5833 9.08338 18.3333 10 18.3333ZM15 8.33332C15 6.00832 13.4084 4.04999 11.25 3.49999V2.91666C11.25 2.22499 10.6917 1.66666 10 1.66666C9.30838 1.66666 8.75004 2.22499 8.75004 2.91666V3.49999C6.59171 4.04999 5.00004 6.00832 5.00004 8.33332V14.1667H4.16671C3.70838 14.1667 3.33338 14.5417 3.33338 15C3.33338 15.4583 3.70838 15.8333 4.16671 15.8333H15.8334C16.2917 15.8333 16.6667 15.4583 16.6667 15C16.6667 14.5417 16.2917 14.1667 15.8334 14.1667H15V8.33332ZM5.12504 2.62499C4.79171 2.29166 4.25004 2.29999 3.92505 2.64166C2.69346 3.95035 1.91872 5.62264 1.71671 7.40832C1.66671 7.89999 2.05838 8.33332 2.55005 8.33332C2.96671 8.33332 3.32505 8.02499 3.37505 7.60832C3.53338 6.13332 4.18338 4.79999 5.14171 3.76666C5.45004 3.44999 5.44171 2.94166 5.12504 2.62499ZM14.8834 2.63332C14.5667 2.94999 14.5584 3.45832 14.8667 3.78332C15.8587 4.83369 16.4792 6.18014 16.6334 7.61666C16.675 8.03332 17.0417 8.34166 17.4584 8.34166C17.576 8.34237 17.6924 8.31819 17.8 8.2707C17.9075 8.22321 18.0039 8.15349 18.0826 8.06612C18.1613 7.97875 18.2206 7.87571 18.2567 7.76377C18.2927 7.65184 18.3046 7.53354 18.2917 7.41666C18.0917 5.58332 17.2917 3.93332 16.0917 2.65832C15.7584 2.30832 15.2167 2.29999 14.8834 2.63332Z" fill="#D7E1EB"/>
<circle cx="14.3334" cy="5.5" r="5.5" fill="#FAE18C"/>
<path d="M11.678 7.536C12.046 7.536 12.35 7.42933 12.59 7.216C12.83 7.00267 12.95 6.69333 12.95 6.288C12.95 5.89867 12.83 5.608 12.59 5.416C12.3553 5.224 12.03 5.128 11.614 5.128L10.942 5.168V2.4H13.438V2.992H11.542V4.584L11.886 4.568C12.414 4.57333 12.83 4.72 13.134 5.008C13.438 5.296 13.59 5.70933 13.59 6.248C13.59 6.54667 13.5393 6.81333 13.438 7.048C13.3367 7.27733 13.198 7.46933 13.022 7.624C12.8513 7.77867 12.6487 7.896 12.414 7.976C12.1793 8.056 11.9287 8.096 11.662 8.096C11.422 8.096 11.2193 8.08267 11.054 8.056C10.8887 8.02933 10.734 7.98933 10.59 7.936L10.758 7.392C10.8807 7.44 11.0113 7.47733 11.15 7.504C11.294 7.52533 11.47 7.536 11.678 7.536ZM15.1974 7.408H16.3174V3.536L16.3974 3.064L16.0774 3.44L15.1974 4.072L14.8934 3.664L16.6534 2.304H16.9414V7.408H18.0374V8H15.1974V7.408Z" fill="#323C46"/>
</svg>
