<svg width="25" height="24" viewBox="0 0 25 24" fill="none" xmlns="http://www.w3.org/2000/svg">
<g clip-path="url(#clip0)">
<path d="M12.5 22C13.6 22 14.5 21.1 14.5 20H10.5C10.5 21.1 11.4 22 12.5 22ZM18.5 10C18.5 7.21 16.59 4.86 14 4.2V3.5C14 2.67 13.33 2 12.5 2C11.67 2 11 2.67 11 3.5V4.2C8.40998 4.86 6.49998 7.21 6.49998 10V17H5.49998C4.94998 17 4.49998 17.45 4.49998 18C4.49998 18.55 4.94998 19 5.49998 19H19.5C20.05 19 20.5 18.55 20.5 18C20.5 17.45 20.05 17 19.5 17H18.5V10ZM6.64998 3.15C6.24998 2.75 5.59998 2.76 5.20998 3.17C3.73208 4.74044 2.80239 6.74718 2.55998 8.89C2.49998 9.48 2.96998 10 3.55998 10C4.05998 10 4.48998 9.63 4.54998 9.13C4.73998 7.36 5.51998 5.76 6.66998 4.52C7.03998 4.14 7.02998 3.53 6.64998 3.15V3.15ZM18.36 3.16C17.98 3.54 17.97 4.15 18.34 4.54C19.5304 5.80044 20.275 7.41619 20.46 9.14C20.51 9.64 20.95 10.01 21.45 10.01C21.5911 10.0109 21.7308 9.98184 21.8599 9.92485C21.989 9.86786 22.1046 9.7842 22.199 9.67935C22.2935 9.57451 22.3647 9.45086 22.4079 9.31654C22.4512 9.18222 22.4655 9.04026 22.45 8.9C22.21 6.7 21.25 4.72 19.81 3.19C19.41 2.77 18.76 2.76 18.36 3.16V3.16Z" fill="#D7E1EB"/>
<circle cx="19" cy="5.5" r="5.5" fill="#FAE18C"/>
<path d="M16.3446 7.536C16.7126 7.536 17.0166 7.42933 17.2566 7.216C17.4966 7.00267 17.6166 6.69333 17.6166 6.288C17.6166 5.89867 17.4966 5.608 17.2566 5.416C17.022 5.224 16.6966 5.128 16.2806 5.128L15.6086 5.168V2.4H18.1046V2.992H16.2086V4.584L16.5526 4.568C17.0806 4.57333 17.4966 4.72 17.8006 5.008C18.1046 5.296 18.2566 5.70933 18.2566 6.248C18.2566 6.54667 18.206 6.81333 18.1046 7.048C18.0033 7.27733 17.8646 7.46933 17.6886 7.624C17.518 7.77867 17.3153 7.896 17.0806 7.976C16.846 8.056 16.5953 8.096 16.3286 8.096C16.0886 8.096 15.886 8.08267 15.7206 8.056C15.5553 8.02933 15.4006 7.98933 15.2566 7.936L15.4246 7.392C15.5473 7.44 15.678 7.47733 15.8166 7.504C15.9606 7.52533 16.1366 7.536 16.3446 7.536ZM19.864 7.408H20.984V3.536L21.064 3.064L20.744 3.44L19.864 4.072L19.56 3.664L21.32 2.304H21.608V7.408H22.704V8H19.864V7.408Z" fill="#F9F9F9"/>
</g>
<defs>
<clipPath id="clip0">
<rect width="24" height="24" fill="white" transform="translate(0.5)"/>
</clipPath>
</defs>
</svg>
