<svg width="18" height="15" viewBox="0 0 18 15" fill="none" xmlns="http://www.w3.org/2000/svg">
<path d="M12.3709 3.14575H14.0422V14.2291H4.01447V3.14575H5.68576V2.35409C5.68576 1.93416 5.86185 1.53143 6.17528 1.2345C6.4887 0.937567 6.91381 0.770752 7.35706 0.770752H10.6997C11.1429 0.770752 11.568 0.937567 11.8814 1.2345C12.1949 1.53143 12.3709 1.93416 12.3709 2.35409V3.14575ZM14.8779 3.14575H15.7135C16.1568 3.14575 16.5819 3.31257 16.8953 3.6095C17.2088 3.90643 17.3848 4.30916 17.3848 4.72909V12.6458C17.3848 13.0657 17.2088 13.4684 16.8953 13.7653C16.5819 14.0623 16.1568 14.2291 15.7135 14.2291H14.8779V3.14575ZM3.17882 3.14575V14.2291H2.34317C1.89992 14.2291 1.47482 14.0623 1.16139 13.7653C0.847958 13.4684 0.671875 13.0657 0.671875 12.6458V4.72909C0.671875 3.85825 1.42396 3.14575 2.34317 3.14575H3.17882ZM7.35706 2.35409V3.14575H10.6997V2.35409H7.35706Z" fill="#73879B"/>
</svg>
