<svg width="17" height="17" viewBox="0 0 17 17" fill="none" xmlns="http://www.w3.org/2000/svg">
<path d="M15.7616 3.27294C15.576 3.05024 15.3437 2.87114 15.0811 2.74834C14.8186 2.62554 14.5322 2.56207 14.2423 2.56242H3.57589L3.54818 2.33086C3.49147 1.84953 3.26013 1.40575 2.89801 1.08364C2.5359 0.761524 2.06817 0.583477 1.58352 0.583252L1.43707 0.583252C1.2621 0.583252 1.09429 0.652758 0.970572 0.77648C0.84685 0.900202 0.777344 1.068 0.777344 1.24297C0.777344 1.41794 0.84685 1.58575 0.970572 1.70947C1.09429 1.83319 1.2621 1.9027 1.43707 1.9027H1.58352C1.74511 1.90272 1.90107 1.96204 2.02183 2.06942C2.14258 2.17679 2.21972 2.32475 2.23863 2.48523L3.14641 10.204C3.24065 11.0067 3.62634 11.7469 4.23027 12.2841C4.8342 12.8213 5.61433 13.118 6.42259 13.118H13.3121C13.487 13.118 13.6548 13.0485 13.7786 12.9247C13.9023 12.801 13.9718 12.6332 13.9718 12.4583C13.9718 12.2833 13.9023 12.1155 13.7786 11.9918C13.6548 11.868 13.487 11.7985 13.3121 11.7985H6.42259C6.01426 11.7974 5.61627 11.67 5.2832 11.4337C4.95013 11.1975 4.69828 10.8641 4.56217 10.4791H12.4261C13.1994 10.4791 13.9483 10.2074 14.5417 9.71146C15.1351 9.21548 15.5354 8.52677 15.6726 7.76565L16.1904 4.89322C16.2421 4.60822 16.2305 4.31534 16.1564 4.03534C16.0823 3.75533 15.9475 3.49505 15.7616 3.27294Z" fill="#73879B"/>
<path d="M5.39562 16.4165C6.12433 16.4165 6.71506 15.8257 6.71506 15.097C6.71506 14.3683 6.12433 13.7776 5.39562 13.7776C4.66691 13.7776 4.07617 14.3683 4.07617 15.097C4.07617 15.8257 4.66691 16.4165 5.39562 16.4165Z" fill="#73879B"/>
<path d="M11.9933 16.4165C12.722 16.4165 13.3127 15.8257 13.3127 15.097C13.3127 14.3683 12.722 13.7776 11.9933 13.7776C11.2646 13.7776 10.6738 14.3683 10.6738 15.097C10.6738 15.8257 11.2646 16.4165 11.9933 16.4165Z" fill="#73879B"/>
</svg>
