<svg width="17" height="17" viewBox="0 0 17 17" fill="none" xmlns="http://www.w3.org/2000/svg">
<path d="M8.50191 0.5C9.71001 0.500698 10.9023 0.775004 11.9892 1.30233C13.0761 1.82966 14.0295 2.59632 14.7778 3.54477C15.5261 4.49322 16.0499 5.59883 16.3099 6.77864C16.5698 7.95845 16.5592 9.1818 16.2787 10.3569C15.9983 11.532 15.4554 12.6283 14.6907 13.5636C13.926 14.4989 12.9594 15.2489 11.8635 15.7572C10.7675 16.2656 9.57067 16.5191 8.36274 16.4988C7.1548 16.4785 5.96716 16.1848 4.88893 15.6399L4.76793 15.5749L1.12295 16.4849C1.0528 16.5025 0.979661 16.5048 0.908575 16.4914C0.83749 16.478 0.770153 16.4494 0.71121 16.4074C0.652268 16.3655 0.603123 16.3113 0.567169 16.2485C0.531214 16.1858 0.509305 16.116 0.502953 16.0439V15.9619L0.516953 15.8789L1.42695 12.2349L1.36395 12.1149C0.906335 11.2141 0.624642 10.2343 0.533953 9.22795L0.508953 8.84595L0.501953 8.49995C0.501953 6.37823 1.3448 4.34341 2.84509 2.84313C4.34537 1.34285 6.38019 0.5 8.50191 0.5ZM9.0019 9.49995H6.00192L5.91192 9.50795C5.79664 9.52882 5.69235 9.58951 5.61725 9.67943C5.54215 9.76935 5.50101 9.88279 5.50101 9.99994C5.50101 10.1171 5.54215 10.2305 5.61725 10.3205C5.69235 10.4104 5.79664 10.4711 5.91192 10.4919L6.00192 10.4999H9.0019L9.0919 10.4919C9.20718 10.4711 9.31148 10.4104 9.38658 10.3205C9.46168 10.2305 9.50282 10.1171 9.50282 9.99994C9.50282 9.88279 9.46168 9.76935 9.38658 9.67943C9.31148 9.58951 9.20718 9.52882 9.0919 9.50795L9.0019 9.49995ZM11.0019 6.49996H6.00192L5.91192 6.50796C5.79664 6.52884 5.69235 6.58953 5.61725 6.67945C5.54215 6.76937 5.50101 6.8828 5.50101 6.99996C5.50101 7.11712 5.54215 7.23055 5.61725 7.32047C5.69235 7.41039 5.79664 7.47108 5.91192 7.49196L6.00192 7.49996H11.0019L11.0919 7.49196C11.2072 7.47108 11.3115 7.41039 11.3866 7.32047C11.4617 7.23055 11.5028 7.11712 11.5028 6.99996C11.5028 6.8828 11.4617 6.76937 11.3866 6.67945C11.3115 6.58953 11.2072 6.52884 11.0919 6.50796L11.0019 6.49996Z" fill="#73879B"/>
</svg>
