<svg width="15" height="17" viewBox="0 0 15 17" fill="none" xmlns="http://www.w3.org/2000/svg">
<path d="M1.40857 16.2584C1.77202 16.4137 2.17385 16.4559 2.56164 16.3794C2.94943 16.303 3.30517 16.1114 3.58245 15.8297L7.49957 11.9339L11.4167 15.8297C11.5993 16.015 11.8169 16.1623 12.0568 16.2629C12.2968 16.3636 12.5543 16.4157 12.8145 16.4161C13.0819 16.4154 13.3466 16.3618 13.5932 16.2584C13.9597 16.1101 14.2729 15.8548 14.4919 15.5257C14.711 15.1967 14.8258 14.8093 14.8213 14.414V3.91131C14.8202 3.02898 14.4693 2.18309 13.8454 1.55918C13.2215 0.935282 12.3756 0.584309 11.4932 0.583252L3.50591 0.583252C2.62357 0.584309 1.77768 0.935282 1.15378 1.55918C0.52988 2.18309 0.178907 3.02898 0.17785 3.91131V14.414C0.173555 14.8096 0.288725 15.1972 0.508302 15.5263C0.727878 15.8554 1.04164 16.1105 1.40857 16.2584Z" fill="#73879B"/>
</svg>
