<svg width="19" height="19" viewBox="0 0 19 19" fill="none" xmlns="http://www.w3.org/2000/svg">
<path fill-rule="evenodd" clip-rule="evenodd" d="M15.4173 5.72158C16.5219 5.72158 17.4173 6.61701 17.4173 7.72158V9.67991V11.839V13.7973C17.4173 14.9019 16.5219 15.7973 15.4173 15.7973H3.58398C2.47941 15.7973 1.58398 14.9019 1.58398 13.7973V5.20264C1.58398 4.09807 2.47941 3.20264 3.58398 3.20264H13.0991C13.8941 3.20264 14.5385 3.84708 14.5385 4.64203H3.923C3.62489 4.64203 3.38323 4.8837 3.38323 5.1818C3.38323 5.47991 3.62489 5.72158 3.923 5.72158H15.4173ZM17.4171 9.67991H14.5385C13.9423 9.67991 13.459 10.1632 13.459 10.7595C13.459 11.3557 13.9423 11.839 14.5385 11.839H17.4171V12.9186H14.5383C13.3459 12.9186 12.3792 11.9519 12.3792 10.7595C12.3792 9.56703 13.3459 8.60037 14.5383 8.60037H17.4171V9.67991Z" fill="#73879B"/>
</svg>
