<svg width="32" height="32" viewBox="0 0 32 32" fill="none" xmlns="http://www.w3.org/2000/svg">
<path fill-rule="evenodd" clip-rule="evenodd" d="M23.188 12.5015C23.7665 11.929 23.7665 10.9475 23.188 10.375L27.8161 14.9552C28.3946 15.5277 28.3946 16.5091 27.8161 17.0817L16.0806 28.6956C15.5021 29.2681 14.5103 29.2681 13.9318 28.6956L5.75 20.5986L10.3781 16.0184L15.0062 20.5986C17.7335 17.8995 20.4607 15.2005 23.188 12.5015Z" fill="#8778F5"/>
<path fill-rule="evenodd" clip-rule="evenodd" d="M2.43244 15.004L14.129 3.30744C14.7056 2.73085 15.694 2.73085 16.2706 3.30744L19.8125 6.84935L15.1998 11.4621L19.8125 16.0748L15.1998 20.6875L10.5871 16.0748L5.97435 20.6875L2.43244 17.1456C1.85585 16.569 1.85585 15.5806 2.43244 15.004Z" fill="#F078DC"/>
<path fill-rule="evenodd" clip-rule="evenodd" d="M19.6574 6.625L23.1376 10.2243C23.7041 10.8103 23.7041 11.8147 23.1376 12.4007L19.6574 16L15.125 11.3125L19.6574 6.625Z" fill="#73C8EB"/>
</svg>
