<svg width="18" height="18" viewBox="0 0 18 18" fill="none" xmlns="http://www.w3.org/2000/svg">
<g clip-path="url(#clip0)">
<path d="M17.2498 6.522C16.835 6.522 16.4998 6.186 16.4998 5.772V2.217C16.4998 1.82175 16.178 1.5 15.7835 1.5H12.2285C11.8138 1.5 11.4785 1.164 11.4785 0.75C11.4785 0.336 11.8138 0 12.2285 0H15.7835C17.006 0 17.9998 0.9945 17.9998 2.217V5.772C17.9998 6.186 17.6645 6.522 17.2498 6.522Z" fill="#A5B4C3"/>
<path d="M0.75 6.522C0.33525 6.522 0 6.186 0 5.772V2.217C0 0.9945 0.99375 0 2.21625 0H5.77125C6.186 0 6.52125 0.336 6.52125 0.75C6.52125 1.164 6.186 1.5 5.77125 1.5H2.21625C1.82175 1.5 1.5 1.82175 1.5 2.217V5.772C1.5 6.186 1.16475 6.522 0.75 6.522Z" fill="#A5B4C3"/>
<path d="M15.7835 18H12.2285C11.8138 18 11.4785 17.664 11.4785 17.25C11.4785 16.836 11.8138 16.5 12.2285 16.5H15.7835C16.178 16.5 16.4998 16.1783 16.4998 15.783V12.228C16.4998 11.814 16.835 11.478 17.2498 11.478C17.6645 11.478 17.9998 11.814 17.9998 12.228V15.783C17.9998 17.0055 17.006 18 15.7835 18Z" fill="#A5B4C3"/>
<path d="M5.77125 18H2.21625C0.99375 18 0 17.0055 0 15.783V12.228C0 11.814 0.33525 11.478 0.75 11.478C1.16475 11.478 1.5 11.814 1.5 12.228V15.783C1.5 16.1783 1.82175 16.5 2.21625 16.5H5.77125C6.186 16.5 6.52125 16.836 6.52125 17.25C6.52125 17.664 6.186 18 5.77125 18Z" fill="#A5B4C3"/>
<path d="M7.1085 8.36924H3.375C2.96025 8.36924 2.625 8.03324 2.625 7.61924V3.375C2.625 2.961 2.96025 2.625 3.375 2.625H7.1085C7.52325 2.625 7.8585 2.961 7.8585 3.375V7.61924C7.8585 8.03324 7.5225 8.36924 7.1085 8.36924ZM4.125 6.86925H6.3585V4.125H4.125V6.86925Z" fill="#A5B4C3"/>
<path d="M14.625 15.375H11.0625C10.6477 15.375 10.3125 15.039 10.3125 14.625V12.2385C10.3125 11.8245 10.6477 11.4885 11.0625 11.4885C11.4772 11.4885 11.8125 11.8245 11.8125 12.2385V13.875H13.875V11.625H12.9885C12.5738 11.625 12.2385 11.289 12.2385 10.875C12.2385 10.461 12.5738 10.125 12.9885 10.125H14.625C15.0397 10.125 15.375 10.461 15.375 10.875V14.625C15.375 15.039 15.0397 15.375 14.625 15.375Z" fill="#A5B4C3"/>
<path d="M14.6249 7.19324H11.5566C11.1419 7.19324 10.8066 6.85724 10.8066 6.44324V3.375C10.8066 2.961 11.1419 2.625 11.5566 2.625H14.6249C15.0396 2.625 15.3749 2.961 15.3749 3.375V6.44324C15.3749 6.85724 15.0396 7.19324 14.6249 7.19324ZM12.3066 5.69325H13.8749V4.125H12.3066V5.69325Z" fill="#A5B4C3"/>
<path d="M9.35849 10.602H3.375C2.96025 10.602 2.625 10.266 2.625 9.85201C2.625 9.43801 2.96025 9.10201 3.375 9.10201H8.60849V4.05676C8.60849 3.64276 8.94374 3.30676 9.35849 3.30676C9.77324 3.30676 10.1085 3.64276 10.1085 4.05676V9.85201C10.1085 10.266 9.77249 10.602 9.35849 10.602Z" fill="#A5B4C3"/>
<path d="M11.4375 10.4144C11.0227 10.4144 10.6875 10.0784 10.6875 9.66445V8.64221C10.6875 8.22821 11.0227 7.89221 11.4375 7.89221H14.8125C15.2272 7.89221 15.5625 8.22821 15.5625 8.64221C15.5625 9.0562 15.2272 9.3922 14.8125 9.3922H12.1875V9.66445C12.1875 10.0784 11.8522 10.4144 11.4375 10.4144Z" fill="#A5B4C3"/>
<path d="M9.01563 14.4008C8.60088 14.4008 8.26562 14.0648 8.26562 13.6508V11.9468C8.26562 11.5328 8.60088 11.1968 9.01563 11.1968C9.43038 11.1968 9.76563 11.5328 9.76563 11.9468V13.6508C9.76563 14.0648 9.43038 14.4008 9.01563 14.4008Z" fill="#A5B4C3"/>
<path d="M6.9375 15.375H3.375C2.96025 15.375 2.625 15.039 2.625 14.625V11.898C2.625 11.484 2.96025 11.1479 3.375 11.1479H6.9375C7.35225 11.1479 7.6875 11.484 7.6875 11.898V14.625C7.6875 15.039 7.35225 15.375 6.9375 15.375ZM4.125 13.875H6.1875V12.648H4.125V13.875Z" fill="#A5B4C3"/>
</g>
<defs>
<clipPath id="clip0">
<rect width="18" height="18" fill="white"/>
</clipPath>
</defs>
</svg>
