<svg width="16" height="16" viewBox="0 0 16 16" fill="none" xmlns="http://www.w3.org/2000/svg">
<path d="M1.9 1.9C3.15 0.65 4.8 0 6.45 0C8.1 0 9.75 0.65 11 1.9C12.25 3.15 12.9 4.8 12.9 6.45C12.9 7.75 12.5 9.1 11.7 10.2C11.8 10.25 11.9 10.3 12 10.4L15.65 14.05C16.1 14.5 16.1 15.2 15.65 15.65C15.2 16.1 14.5 16.1 14.05 15.65L10.4 12C10.3 11.9 10.25 11.8 10.2 11.7C9.1 12.5 7.75 12.9 6.45 12.9C4.8 12.9 3.15 12.25 1.9 11C0.65 9.8 0 8.1 0 6.45C0 4.8 0.65 3.15 1.9 1.9ZM6.45 1.5C5.2 1.5 3.9 2 2.95 2.95C2 3.95 1.5 5.2 1.5 6.45C1.5 7.7 2 9 2.95 9.95C3.9 10.9 5.2 11.4 6.45 11.4C7.7 11.4 9 10.9 9.95 9.95C10.9 9 11.4 7.7 11.4 6.45C11.4 5.2 10.9 3.9 9.95 2.95C9 2 7.75 1.5 6.45 1.5Z" fill="#A5AFBE"/>
</svg>
