<svg width="18" height="18" viewBox="0 0 18 18" fill="none" xmlns="http://www.w3.org/2000/svg">
<path d="M2.1375 2.1375C3.54375 0.73125 5.4 0 7.25625 0C9.1125 0 10.9688 0.73125 12.375 2.1375C13.7812 3.54375 14.5125 5.4 14.5125 7.25625C14.5125 8.71875 14.0625 10.2375 13.1625 11.475C13.275 11.5312 13.3875 11.5875 13.5 11.7L17.6062 15.8063C18.1125 16.3125 18.1125 17.1 17.6062 17.6062C17.1 18.1125 16.3125 18.1125 15.8063 17.6062L11.7 13.5C11.5875 13.3875 11.5312 13.275 11.475 13.1625C10.2375 14.0625 8.71875 14.5125 7.25625 14.5125C5.4 14.5125 3.54375 13.7812 2.1375 12.375C0.73125 11.025 0 9.1125 0 7.25625C0 5.4 0.73125 3.54375 2.1375 2.1375ZM7.25625 1.6875C5.85 1.6875 4.3875 2.25 3.31875 3.31875C2.25 4.44375 1.6875 5.85 1.6875 7.25625C1.6875 8.6625 2.25 10.125 3.31875 11.1937C4.3875 12.2625 5.85 12.825 7.25625 12.825C8.6625 12.825 10.125 12.2625 11.1937 11.1937C12.2625 10.125 12.825 8.6625 12.825 7.25625C12.825 5.85 12.2625 4.3875 11.1937 3.31875C10.125 2.25 8.71875 1.6875 7.25625 1.6875Z" fill="#A5B4C3"/>
</svg>
