<svg width="6" height="10" viewBox="0 0 6 10" fill="none" xmlns="http://www.w3.org/2000/svg">
<path d="M0.63977 1.21264C0.509429 1.07768 0.437306 0.896937 0.438936 0.709324C0.440567 0.521711 0.515819 0.342245 0.648486 0.209578C0.781154 0.0769103 0.96062 0.00165735 1.14823 2.70492e-05C1.33585 -0.00160325 1.51659 0.0705196 1.65155 0.200861L4.93302 3.48234C5.33545 3.88489 5.56152 4.43079 5.56152 5C5.56152 5.56921 5.33545 6.11511 4.93302 6.51766L1.65155 9.79914C1.51659 9.92948 1.33585 10.0016 1.14823 9.99997C0.96062 9.99834 0.781154 9.92309 0.648486 9.79042C0.515819 9.65775 0.440567 9.47829 0.438936 9.29068C0.437306 9.10306 0.509429 8.92231 0.63977 8.78736L3.92339 5.50589C4.05753 5.3717 4.13289 5.18974 4.13289 5C4.13289 4.81026 4.05753 4.6283 3.92339 4.49411L0.63977 1.21264Z" fill="#D7E1EB"/>
</svg>
