<svg width="6" height="10" viewBox="0 0 6 10" fill="none" xmlns="http://www.w3.org/2000/svg">
<path d="M5.36023 1.21264C5.49057 1.07768 5.56269 0.896937 5.56106 0.709324C5.55943 0.521711 5.48418 0.342245 5.35151 0.209578C5.21885 0.0769103 5.03938 0.00165735 4.85177 2.70492e-05C4.66415 -0.00160325 4.48341 0.0705196 4.34845 0.200861L1.06698 3.48234C0.66455 3.88489 0.438477 4.43079 0.438477 5C0.438477 5.56921 0.66455 6.11511 1.06698 6.51766L4.34845 9.79914C4.48341 9.92948 4.66415 10.0016 4.85177 9.99997C5.03938 9.99834 5.21885 9.92309 5.35151 9.79042C5.48418 9.65775 5.55943 9.47829 5.56106 9.29068C5.56269 9.10306 5.49057 8.92231 5.36023 8.78736L2.07661 5.50589C1.94247 5.3717 1.86711 5.18974 1.86711 5C1.86711 4.81026 1.94247 4.6283 2.07661 4.49411L5.36023 1.21264Z" fill="#D7E1EB"/>
</svg>
