<svg width="12" height="12" viewBox="0 0 12 12" fill="none" xmlns="http://www.w3.org/2000/svg">
<path d="M1.54964 6.24777L3.03379 7.3317L2.47014 9.07725C2.37906 9.34797 2.3779 9.64089 2.46685 9.91232C2.5558 10.1838 2.7301 10.4192 2.96375 10.5835C3.1934 10.7531 3.47169 10.8439 3.75716 10.8425C4.04264 10.8411 4.32001 10.7474 4.54795 10.5756L5.99917 9.50748L7.4508 10.5743C7.68003 10.7429 7.95682 10.8345 8.24139 10.8359C8.52595 10.8373 8.80362 10.7484 9.03449 10.582C9.26535 10.4157 9.43751 10.1804 9.52622 9.90998C9.61493 9.6396 9.61562 9.34805 9.52819 9.07725L8.96455 7.3317L10.4487 6.24777C10.6776 6.08039 10.8478 5.84495 10.9349 5.57507C11.0221 5.30518 11.0217 5.01467 10.9338 4.74503C10.846 4.47538 10.6752 4.24039 10.4458 4.07362C10.2164 3.90686 9.94019 3.81684 9.65659 3.81644H7.83351L7.28029 2.09216C7.19329 1.82074 7.02234 1.58397 6.79209 1.41598C6.56184 1.24799 6.28418 1.15747 5.99917 1.15747C5.71415 1.15747 5.43649 1.24799 5.20624 1.41598C4.97599 1.58397 4.80504 1.82074 4.71805 2.09216L4.16482 3.81644H2.34341C2.05981 3.81684 1.7836 3.90686 1.55421 4.07362C1.32483 4.24039 1.15402 4.47538 1.06617 4.74503C0.978324 5.01467 0.977935 5.30518 1.06506 5.57507C1.15219 5.84495 1.32237 6.08039 1.5513 6.24777H1.54964Z" fill="#D7E1EB"/>
</svg>
